<?xml version="1.0" encoding="UTF-8"?> <svg xmlns="http://www.w3.org/2000/svg" id="a" viewBox="0 0 200 34"><defs><style>.b{fill:#fff;}</style></defs><path class="b" d="M46.81,17.55v-1.06c.08-4.64-.36-9.5-4.26-12.09-4.06-2.7-9.8-2.04-12.91,.27-4.31,3.21-3.9,11.82-3.9,11.82v1.06c-.08,4.64,.44,9.43,4.34,12.02,4.06,2.7,9.71,2.09,12.83-.2,4.5-3.3,3.9-11.82,3.9-11.82Zm-6.92,3.69s-.24,3.69-3.61,3.73c-3.37,.04-3.58-4.09-3.59-3.9-.1-.95-.1-4.08-.1-4.08l.1-4.32s.26-3.63,3.6-3.63,3.63,3.51,3.61,3.98c-.02,.47,.08,3.98,.08,3.98l-.08,4.25Z"></path><path class="b" d="M50.24,3.3V30.46c0,.23,.19,.42,.42,.42h6.03c.23,0,.42-.19,.42-.42v-10.28c0-.08,.07-.15,.15-.15h7.16c.08,0,.15,.07,.15,.15v10.28c0,.23,.19,.42,.42,.42h5.91c.23,0,.42-.19,.42-.42V3.57c0-.23-.19-.42-.42-.42h-5.92c-.23,0-.42,.19-.42,.42V13.51c0,.08-.07,.15-.15,.15h-7.21c-.08,0-.15-.07-.15-.15V3.58c0-.23-.19-.42-.42-.42h-6.24c-.08,0-.14,.07-.14,.15Z"></path><path class="b" d="M98.81,30.63L89.83,3.28c-.02-.07-.1-.13-.17-.13h-6.68c-.08,0-.15,.05-.17,.13l-9.09,27.35c-.04,.12,.05,.24,.17,.24h6.6c.08,0,.15-.05,.18-.13l1.3-4.58h8.39l1.29,4.58c.02,.08,.1,.13,.18,.13h6.82c.12,0,.21-.12,.17-.24Zm-15.13-10.46l2.58-8.57,2.46,8.57h-5.04Z"></path><g><path class="b" d="M104.44,30.41V9.85s.04-.04,.06-.01l11.86,20.75c.06,.11,.18,.18,.31,.18h2.7c.2,0,.36-.16,.36-.36V3.62c0-.2-.16-.36-.36-.36h-2.5c-.2,0-.36,.16-.36,.36V24.18s-.04,.04-.06,.02L104.63,3.44c-.06-.11-.18-.18-.31-.18h-2.67c-.2,0-.36,.16-.36,.36V30.41c0,.2,.16,.36,.36,.36h2.43c.2,0,.36-.16,.36-.36Z"></path><path class="b" d="M127.08,30.77h15.66c.16,0,.29-.13,.29-.29v-2.85c0-.17-.14-.31-.31-.31h-12.42c-.08,0-.14-.06-.14-.14v-8.52c0-.08,.06-.14,.14-.14h10.58c.17,0,.31-.14,.31-.31v-2.74c0-.17-.14-.31-.31-.31h-10.57c-.08,0-.14-.06-.14-.14V6.76c0-.08,.06-.14,.14-.14h12.42c.17,0,.31-.14,.31-.31V3.54c0-.17-.14-.31-.31-.31h-15.64c-.17,0-.31,.14-.31,.31V30.46c0,.17,.14,.31,.31,.31Z"></path><path class="b" d="M146.51,3.6l6.24,26.93c.03,.14,.15,.23,.29,.23h2.32c.14,0,.25-.09,.29-.22l5.49-20.55s.06-.04,.07,0l5.52,20.55c.04,.13,.15,.22,.29,.22h2.34c.14,0,.26-.1,.29-.23l6.27-26.93c.04-.19-.1-.37-.29-.37h-2.67c-.14,0-.26,.1-.29,.24l-4.51,20.46s-.06,.04-.07,0l-5.48-20.47c-.04-.13-.15-.22-.29-.22h-2.26c-.14,0-.26,.09-.29,.22l-5.32,20.47s-.06,.04-.07,0l-4.59-20.46c-.03-.14-.15-.23-.29-.23h-2.68c-.19,0-.33,.18-.29,.37Z"></path><path class="b" d="M196.34,5.89c-.32,.55-.94,1.63-1.29,2.22-.13,.22-.42,.29-.63,.14-.96-.67-3.61-2.27-6.42-2.06-3.53,.27-4.36,2.1-4.57,3.52,0,0-.2,1.72,.37,2.76,.58,1.05,1.86,2.04,4.47,2.44s4.54,.5,7.11,2.39,2.21,5.84,2.21,5.84c0,0,0,3.46-1.87,5.23s-4.47,3.51-10.24,2.55c-2.37-.42-5.03-1.78-6.38-3.26-.15-.16-.15-.4-.01-.57l1.62-2.04c.15-.2,.44-.23,.63-.07,.82,.68,2.98,2.31,5.34,2.71,3,.5,5.02-.35,5.84-1.04s1.77-1.71,1.66-3.98-2.36-3.4-3.42-3.61-4.76-.75-6.35-1.35c-1.59-.6-3.22-1.94-4.01-3.91-.79-1.97-.39-5.15,.08-6.19s1.62-3.36,4.43-4.27c2.72-.89,7.3-.84,11.28,1.97,.19,.13,.25,.38,.13,.59Z"></path></g><path class="b" d="M22.12,9.69c-1.87-6.63-8.32-6.58-8.32-6.58H2.68c-.17,0-.3,.13-.3,.3V21.3l3.9,3.26s.01,.09-.03,.09H2.38v5.93c0,.19,.15,.34,.34,.34,1.52,0,7.73-.02,9.88,0,2.45,.02,3.85-.37,5.55-1.23,1.76-.9,2.68-2.33,3.41-3.84,.73-1.51,1.26-3.61,1.26-8.51,0-4.9-.7-7.63-.7-7.63Zm-6.18,10.49c0,1.98-.87,3.06-1.73,3.66-.67,.46-1.47,.69-2.28,.69h-2.62c-.1,0-.17-.08-.17-.17V9.63c0-.07,.05-.12,.12-.12h3.47c1.49,0,2.31,1.2,2.75,2.31,.32,.8,.47,1.67,.47,2.53v5.83h0Z"></path></svg> 